<svg width="44" height="55" viewBox="0 0 44 55" fill="none" xmlns="http://www.w3.org/2000/svg">
<rect width="44" height="55" fill="#F5F5F5"/>
<path d="M43.9772 32.7562C43.9772 32.8826 43.97 33.0089 43.97 33.1285C43.9628 33.2103 43.9628 33.2847 43.9556 33.3671C43.9413 33.7016 43.9126 34.0368 43.8839 34.372V34.4463C43.8624 34.5957 43.8481 34.7518 43.8336 34.9011C43.8265 34.9531 43.8265 34.9977 43.8193 35.0498C43.7906 35.2735 43.7619 35.4965 43.726 35.7201C43.7265 35.7242 43.7261 35.7283 43.7249 35.7322C43.7237 35.736 43.7216 35.7395 43.7188 35.7424C43.6686 36.1148 43.6034 36.4797 43.5316 36.8446C43.5289 36.8475 43.5268 36.8511 43.5256 36.8549C43.5244 36.8588 43.524 36.8629 43.5245 36.8669C43.4958 37.0305 43.4593 37.1873 43.424 37.3508C43.3236 37.79 43.2152 38.2293 43.0932 38.6611C43.0071 38.9591 42.921 39.2572 42.8199 39.5552C42.7547 39.3524 42.6895 39.1497 42.619 38.9591C42.5687 38.8179 42.5179 38.6767 42.4676 38.5422V38.5348C42.4601 38.5056 42.448 38.478 42.4317 38.453C42.4174 38.4232 42.4103 38.3935 42.3959 38.3638C42.3241 38.161 42.2452 37.9691 42.1584 37.7752C42.1292 37.6938 42.0956 37.6142 42.0579 37.5366V37.5292C42.0489 37.5052 42.0368 37.4824 42.0221 37.4616L42.0149 37.4542C42.013 37.4247 42.0031 37.3963 41.9862 37.3724C41.907 37.1868 41.8201 37.0007 41.7252 36.8142C41.7066 36.7677 41.6848 36.7225 41.66 36.6791C41.6437 36.6404 41.6245 36.6031 41.6027 36.5676C41.5595 36.4635 41.5094 36.3648 41.4591 36.2696L41.2634 35.9121C41.2347 35.8526 41.206 35.7931 41.1701 35.7337C41.1773 35.7262 41.1701 35.7262 41.1701 35.7262C41.1414 35.6668 41.1049 35.6066 41.0697 35.5471C40.947 35.3093 40.8087 35.0782 40.6665 34.847C40.5012 34.5646 40.3288 34.2891 40.1491 34.0206C40.1157 33.9773 40.0845 33.9322 40.0558 33.8854C39.8901 33.6394 39.7179 33.3941 39.545 33.1556C39.3944 32.9468 39.2358 32.7461 39.078 32.5474C38.9991 32.4433 38.9201 32.3392 38.8333 32.2419C38.7831 32.1744 38.7258 32.1068 38.6683 32.0392C38.5378 31.8757 38.395 31.7114 38.2515 31.5479C38.2272 31.5163 38.2007 31.4865 38.1725 31.4587C37.971 31.2276 37.7622 31.0039 37.5469 30.7829L22.0012 14.6677L6.44511 30.7802C6.13589 31.0999 5.84102 31.4276 5.55333 31.7554C5.38829 31.9493 5.22324 32.15 5.06472 32.3514C5.00731 32.419 4.95708 32.4866 4.89967 32.5541C4.70396 32.8001 4.51869 33.0535 4.33864 33.3063C4.28841 33.3806 4.23818 33.4482 4.18795 33.5225C4.09401 33.6489 4.0079 33.7834 3.91461 33.9172C3.84285 34.0212 3.77827 34.1253 3.71303 34.2301C3.67716 34.2778 3.64363 34.3274 3.61257 34.3787C3.42599 34.6767 3.23877 34.9822 3.06654 35.2876C2.97978 35.4363 2.90085 35.5776 2.82191 35.7269C2.80946 35.7567 2.7925 35.7843 2.77168 35.8087C2.69274 35.9573 2.62033 36.1141 2.5414 36.2628C2.44093 36.4567 2.34569 36.65 2.25371 36.844C2.23508 36.8766 2.22061 36.9115 2.21065 36.948C2.18383 36.9986 2.15987 37.0507 2.13889 37.1041C2.12157 37.1324 2.10714 37.1626 2.09584 37.194C2.06713 37.2535 2.03843 37.3055 2.0169 37.3575C1.95167 37.4988 1.89491 37.6333 1.84403 37.7745C1.78648 37.8928 1.73615 38.0146 1.69333 38.1394C1.6718 38.184 1.65745 38.2212 1.63592 38.2658C1.63592 38.2732 1.62875 38.2807 1.62875 38.2881C1.46305 38.7132 1.31235 39.1301 1.18319 39.5545C1.08207 39.2565 0.995961 38.9585 0.90985 38.6604C0.852443 38.4577 0.794383 38.255 0.744151 38.0577C0.69392 37.8603 0.636512 37.6407 0.593456 37.4245C0.536048 37.1866 0.485598 36.9482 0.442108 36.7095C0.391876 36.4716 0.348823 36.2331 0.311638 35.9871C0.274454 35.7411 0.232702 35.5032 0.203998 35.2572C0.175295 35.0545 0.153766 34.8477 0.132238 34.649C0.125062 34.5747 0.117886 34.5071 0.11071 34.4328C0.0891822 34.2247 0.0741786 34.0084 0.0598268 33.8003V33.7928C0.038299 33.5692 0.0311229 33.3529 0.0239469 33.1299C0.00959507 32.8244 0.00241852 32.5264 0.00241852 32.221C0.00241852 31.7892 0.0167712 31.3499 0.0461273 30.9181C0.33776 25.3313 2.61697 20.0546 6.4438 16.1064L21.9784 0.022974L21.9999 0L37.5495 16.1078C38.6909 17.2852 39.7012 18.5915 40.5615 20.0023C40.5615 20.0097 40.5686 20.0171 40.5686 20.0246C42.5806 23.292 43.7443 27.0421 43.9472 30.912C43.9843 31.5276 43.9987 32.1379 43.9772 32.7562Z" fill="url(#paint0_linear_0_1)"/>
<path d="M37.2415 48.6329C33.6435 52.2235 28.9713 54.4362 23.996 54.906C19.0206 55.3758 14.0392 54.0746 9.87381 51.217C9.8451 51.2015 9.82357 51.1866 9.80857 51.1792C8.71828 50.4275 7.69578 49.5752 6.75358 48.6329L7.34983 48.0145L22.0005 32.8454L36.7307 48.1037V48.1112L36.781 48.1639L37.2415 48.6329Z" fill="url(#paint1_linear_0_1)"/>
<path d="M42.8204 39.5551C42.0931 41.7954 41.0307 43.9037 39.6721 45.8027C39.5417 45.9817 39.4112 46.1601 39.2696 46.3392C39.1392 46.5102 39.0035 46.6818 38.8665 46.8528C38.5866 47.1907 38.3061 47.5232 38.0041 47.8509C37.8605 48.0145 37.7092 48.1706 37.5513 48.3348C37.4578 48.4416 37.3568 48.5412 37.2493 48.6328H37.2421L36.7855 48.1638L36.7352 48.1111V48.1037L22.005 32.8453L7.35107 48.0124L6.75482 48.6308C6.64672 48.5372 6.54346 48.4377 6.4456 48.3328C4.05743 45.8691 2.25589 42.8631 1.18368 39.5531C1.31415 39.1287 1.46354 38.7117 1.62924 38.2867C1.62924 38.2792 1.63641 38.2718 1.63641 38.2644C1.65794 38.2198 1.6723 38.1826 1.69383 38.138C1.73664 38.0133 1.78697 37.8913 1.84452 37.7731C1.95977 37.4974 2.08197 37.2219 2.21114 36.9466C2.31226 36.7155 2.42707 36.4851 2.54189 36.2614C2.70759 35.9336 2.87981 35.6059 3.06703 35.2862C3.23926 34.9808 3.42648 34.678 3.61306 34.3773C3.62741 34.3624 3.63459 34.3401 3.64894 34.3253C3.82181 34.0496 4.00839 33.7738 4.2028 33.4988C4.24585 33.4312 4.28891 33.3718 4.33914 33.3049C4.53485 33.0345 4.73446 32.769 4.93604 32.5081L4.9504 32.4932C5.14393 32.2473 5.34507 32.0016 5.55383 31.756C5.84152 31.4282 6.13638 31.1005 6.4456 30.7808L22.0017 14.6656L37.5513 30.7802C39.3909 32.6836 40.8902 34.9098 41.9795 37.3555C42.0011 37.3865 42.0157 37.422 42.0226 37.4595C42.0373 37.4804 42.0493 37.503 42.0585 37.5271V37.5345C42.0961 37.6121 42.1297 37.6917 42.1589 37.7731C42.2457 37.967 42.3246 38.1603 42.3964 38.3617C42.4246 38.4166 42.4486 38.4738 42.4681 38.5327V38.5401C42.5184 38.6752 42.5693 38.8158 42.6195 38.957C42.6912 39.153 42.7558 39.3537 42.8204 39.5551Z" fill="url(#paint2_linear_0_1)"/>
<g style="mix-blend-mode:multiply" opacity="0.06">
<g style="mix-blend-mode:multiply">
<path d="M22.0012 32.8461L6.75233 48.6356C6.6473 48.5423 6.54162 48.4328 6.44377 48.3321C5.67941 47.5439 4.9731 46.6975 4.33079 45.8L22.0012 32.8461Z" fill="black"/>
</g>
</g>
<g style="mix-blend-mode:multiply" opacity="0.06">
<g style="mix-blend-mode:multiply">
<path d="M22.0013 14.6678L6.44518 30.7803C6.13596 31.0999 5.8411 31.4277 5.55341 31.7554C5.38836 31.9582 5.22332 32.1501 5.06479 32.3515C5.00738 32.419 4.95715 32.4866 4.89975 32.5542C4.70404 32.8002 4.51877 33.0536 4.33872 33.3063C4.28849 33.3807 4.23826 33.4483 4.18802 33.5226C4.09408 33.649 4.0008 33.7834 3.91469 33.9172C3.84293 34.0213 3.77834 34.1254 3.71311 34.2301C3.67723 34.2779 3.6437 34.3275 3.61264 34.3788C3.42607 34.6768 3.23884 34.9823 3.06662 35.2877C2.97986 35.429 2.90092 35.5776 2.82199 35.727C2.80953 35.7568 2.79258 35.7844 2.77176 35.8087C2.69282 35.9574 2.61388 36.1142 2.54147 36.2629C2.44101 36.4568 2.34577 36.6501 2.25378 36.844C2.23516 36.8767 2.22068 36.9116 2.21073 36.9481C2.1839 36.9986 2.15994 37.0507 2.13897 37.1042C2.12165 37.1325 2.10722 37.1627 2.09591 37.1941C2.0098 37.3873 1.92369 37.5813 1.8441 37.7746C1.78655 37.8928 1.73622 38.0147 1.69341 38.1395C1.50618 38.6085 1.33396 39.0775 1.18326 39.5546C1.08215 39.2565 0.996038 38.9585 0.909926 38.6605C0.852519 38.4578 0.794459 38.255 0.744228 38.0577C0.693996 37.8604 0.636588 37.6408 0.593532 37.4245C0.536125 37.1866 0.485674 36.9483 0.442184 36.7095C0.391952 36.4717 0.348899 36.2331 0.311714 35.9871C0.27453 35.7412 0.232778 35.5033 0.204075 35.2573C0.175371 35.0546 0.153843 34.8478 0.132315 34.6491C0.125139 34.5748 0.117962 34.5072 0.110786 34.4329C0.0892585 34.2247 0.0742549 34.0085 0.0599031 33.8003V33.7929C0.0383753 33.5692 0.0311991 33.353 0.0240232 33.13C0.00967136 32.8245 0.00249481 32.5265 0.00249481 32.221C0.00249481 31.7892 0.0168475 31.35 0.0462036 30.9181L0.283009 30.7397L18.8805 16.9776L22.0013 14.6678Z" fill="black"/>
</g>
</g>
<g style="mix-blend-mode:multiply" opacity="0.06">
<g style="mix-blend-mode:multiply">
<path d="M39.6715 45.8027C39.5411 45.9818 39.4106 46.1602 39.269 46.3393C39.1386 46.5103 39.0029 46.6819 38.8659 46.8529C38.586 47.1908 38.3055 47.5232 38.0035 47.851C37.8599 48.0145 37.7086 48.1781 37.5579 48.3349H37.5507C37.4572 48.4417 37.3563 48.5413 37.2487 48.6329H37.2415L36.7385 48.1037C36.7385 48.1112 36.7314 48.1037 36.7314 48.1037C36.7216 48.0871 36.7095 48.0721 36.6955 48.0591L22.0011 32.8454L24.97 35.02L39.089 45.377L39.6715 45.8027Z" fill="black"/>
</g>
</g>
<g style="mix-blend-mode:multiply" opacity="0.06">
<g style="mix-blend-mode:multiply">
<path d="M43.4206 37.3529C43.3221 37.7915 43.2164 38.2314 43.0945 38.6612C43.0083 38.9592 42.9222 39.2572 42.8211 39.5552C42.7559 39.3525 42.6906 39.1498 42.6202 38.9592C42.57 38.818 42.5191 38.6767 42.4617 38.5422C42.4431 38.4816 42.4214 38.422 42.3964 38.3638C42.3247 38.1611 42.2457 37.9692 42.159 37.7752C42.1297 37.6939 42.0962 37.6142 42.0585 37.5367C42.051 37.5099 42.0388 37.4847 42.0226 37.4624C42.0158 37.4249 42.0011 37.3893 41.9796 37.3583C40.8886 34.9154 39.3923 32.69 37.5585 30.783H37.5514L22.0011 14.6678L25.0835 16.9539L43.465 30.5519L43.9464 30.9094L43.9536 30.9168C43.9823 31.3486 43.9967 31.7879 43.9967 32.2197C43.9967 32.3988 43.9823 32.5779 43.9784 32.7563C43.9784 32.8813 43.9699 33.0056 43.9654 33.1306C43.9484 33.5598 43.921 33.9875 43.8805 34.4146C43.861 34.6268 43.8394 34.8383 43.8153 35.0498C43.7879 35.2735 43.7605 35.4965 43.7272 35.7189C43.6698 36.1013 43.6026 36.4827 43.5257 36.8629C43.4937 37.0272 43.4572 37.19 43.4206 37.3529Z" fill="black"/>
</g>
</g>
<g style="mix-blend-mode:multiply" opacity="0.14">
<g style="mix-blend-mode:multiply">
<path d="M36.7854 48.1604L22.0017 32.846L7.35368 48.0124C8.47443 46.6413 9.64737 45.333 10.7981 43.9929C11.9632 42.6765 13.1362 41.3574 14.3248 40.0673C15.5049 38.7584 16.7157 37.4812 17.9127 36.1958L21.5522 32.379L22.003 31.906L22.4545 32.379L26.124 36.231C27.3347 37.5318 28.5527 38.8172 29.7485 40.1336C30.9442 41.45 32.1322 42.7691 33.3129 44.099C34.4617 45.4499 35.6523 46.7737 36.7854 48.1604Z" fill="black"/>
</g>
</g>
<g style="mix-blend-mode:multiply" opacity="0.14">
<g style="mix-blend-mode:multiply">
<path d="M42.056 37.5278C40.9618 35.0156 39.4366 32.7298 37.5548 30.7815L22.0013 14.6649L6.44316 30.7802C4.37488 32.918 2.74117 35.4636 1.63854 38.2665C2.49661 35.7414 3.7965 33.4018 5.4731 31.3647C5.89452 30.8504 6.35313 30.3679 6.78958 29.8848L8.10539 28.4359L10.7748 25.5611C14.3243 21.7369 17.9332 17.9587 21.5505 14.1966L22.0013 13.729L22.4527 14.1966L27.7237 19.7117C29.461 21.5654 31.2204 23.4041 32.9426 25.2814L35.537 28.0777L36.8228 29.4874C37.2436 29.9604 37.6872 30.4301 38.1086 30.9065C39.7962 32.8512 41.1332 35.0938 42.056 37.5278Z" fill="black"/>
</g>
</g>
<g style="mix-blend-mode:screen" opacity="0.3">
<g style="mix-blend-mode:screen">
<path d="M36.7854 48.1605C35.4467 46.984 34.1688 45.7534 32.8712 44.562C31.5852 43.3388 30.3094 42.108 29.0439 40.8696C27.7724 39.6309 26.5323 38.3692 25.2765 37.1149L22.0049 33.7732L18.7718 37.0845C17.5232 38.3232 16.2981 39.5768 15.0345 40.7925C13.7787 42.0305 12.5151 43.2381 11.2371 44.4532C9.94347 45.6372 8.68051 46.8522 7.35687 48.0132L22.0049 32.8467L36.7854 48.1605Z" fill="white"/>
</g>
</g>
<g style="mix-blend-mode:screen" opacity="0.3">
<g style="mix-blend-mode:screen">
<path d="M42.056 37.5278C40.9266 35.2373 39.4434 33.1534 37.665 31.3587C35.8599 29.5821 34.0326 27.8061 32.2432 26.0072C30.4388 24.2151 28.6637 22.4006 26.8743 20.5936L22.0012 15.5928C18.5219 19.192 15.0153 22.7596 11.4813 26.2958L8.70941 29.0604C7.78437 29.972 6.82214 30.8755 5.94209 31.802C4.16823 33.6919 2.71423 35.8777 1.6411 38.2678C2.7428 35.4647 4.37562 32.9187 6.4431 30.7802L22.0012 14.6637L37.5521 30.7802C39.435 32.7287 40.9611 35.0149 42.056 37.5278Z" fill="white"/>
</g>
</g>
<g style="mix-blend-mode:screen" opacity="0.5">
<g style="mix-blend-mode:screen">
<path d="M21.9799 0.0202942C21.7933 0.258168 20.2113 2.22399 17.7819 4.96493C16.4948 6.43948 14.9709 8.12215 13.3179 9.91701C12.4835 10.8029 11.6426 11.7335 10.7587 12.6573C9.87471 13.5811 8.97576 14.5265 8.08399 15.4644C7.63843 15.926 7.15699 16.3957 6.74013 16.8424C6.28025 17.3154 5.89209 17.7803 5.50068 18.2574C4.73272 19.2026 4.04045 20.211 3.43075 21.2727C2.33866 23.164 1.50174 25.2012 0.943309 27.3277C0.682366 28.2657 0.533629 29.1523 0.389458 29.9335C0.345967 30.2169 0.310087 30.4852 0.281818 30.7383C0.224411 31.2002 0.180919 31.6171 0.151346 31.9892C0.10829 32.5474 0.101114 33.017 0.0795859 33.3218C0.0652344 33.5921 0.0574083 33.7543 0.0574083 33.7949C0.0358805 33.5712 0.0287044 33.3549 0.0215284 33.1319C0.00717655 32.8265 0 32.5285 0 32.223C0 31.7912 0.0143528 31.3519 0.0437089 30.9201C0.335341 25.3334 2.61456 20.0567 6.44138 16.1085L21.9799 0.0202942Z" fill="white"/>
</g>
</g>
<g style="mix-blend-mode:multiply" opacity="0.2">
<g style="mix-blend-mode:multiply">
<path d="M43.4207 37.3528C43.3222 37.7914 43.2165 38.2313 43.0945 38.6611C43.0084 38.9591 42.9223 39.2572 42.8212 39.5552C42.0939 41.7955 41.0315 43.9037 39.6729 45.8027C39.5424 45.9818 39.412 46.1602 39.2704 46.3393C39.1399 46.5103 39.0042 46.6819 38.8672 46.8529C38.5874 47.1908 38.3069 47.5232 38.0048 47.851C37.8613 48.0145 37.71 48.1781 37.5593 48.3349H37.5521C37.4585 48.4417 37.3576 48.5413 37.2501 48.6329H37.2429C33.6449 52.2235 28.9727 54.4362 23.9973 54.906C19.0219 55.3758 14.0406 54.0746 9.87517 51.217C9.96911 51.2691 10.1198 51.3583 10.3064 51.4698C10.6945 51.6935 11.2699 51.9908 12.0103 52.3564C14.0539 53.3219 16.2248 53.967 18.4517 54.2702C21.5656 54.7037 24.7327 54.4525 27.7465 53.5329C29.43 53.013 31.0489 52.2906 32.57 51.3806C34.0767 50.4673 35.4719 49.3696 36.7256 48.1112C36.7256 48.1112 36.7327 48.1186 36.7327 48.1112V48.1037C36.7327 48.1037 36.7399 48.1112 36.7399 48.1037C36.7901 48.0591 36.8332 48.0071 36.8834 47.9625C37.6843 47.1634 38.4223 46.2992 39.0904 45.3783C39.5047 44.8083 39.8909 44.2169 40.2476 43.6065C41.1665 42.053 41.9003 40.39 42.433 38.6537C42.446 38.6175 42.4555 38.5802 42.4617 38.5422H42.4689V38.5348C42.9434 36.9444 43.2567 35.3072 43.4037 33.6496C43.4928 32.6197 43.5146 31.5847 43.469 30.5518C43.4475 30.0382 43.4037 29.5314 43.3542 29.0475C43.2198 27.7455 42.9817 26.4571 42.6424 25.1956C42.3765 24.2189 42.0496 23.2611 41.6639 22.3283C41.3188 21.5613 41.0598 20.9511 40.8445 20.5564C40.7141 20.303 40.6214 20.1172 40.5712 20.0199C42.5832 23.2873 43.747 27.0374 43.9498 30.9073L43.9569 30.9147C43.9856 31.3465 44 31.7858 44 32.2176C44 32.3967 43.9857 32.5758 43.9817 32.7542C43.9817 32.8792 43.9733 33.0035 43.9687 33.1285C43.9517 33.5577 43.9243 33.9854 43.8839 34.4125C43.8643 34.6247 43.8428 34.8362 43.8186 35.0478C43.7912 35.2714 43.7638 35.4944 43.7306 35.7168C43.6732 36.0993 43.606 36.4806 43.529 36.8609C43.4938 37.0271 43.4572 37.19 43.4207 37.3528Z" fill="black"/>
</g>
</g>
<defs>
<linearGradient id="paint0_linear_0_1" x1="21.9949" y1="0.672438" x2="21.9949" y2="30.0223" gradientUnits="userSpaceOnUse">
<stop stop-color="#FC7300"/>
<stop offset="1" stop-color="#F8007A"/>
</linearGradient>
<linearGradient id="paint1_linear_0_1" x1="21.9975" y1="33.6651" x2="21.9975" y2="54.1581" gradientUnits="userSpaceOnUse">
<stop stop-color="#FC7300"/>
<stop offset="1" stop-color="#F8007A"/>
</linearGradient>
<linearGradient id="paint2_linear_0_1" x1="22.002" y1="15.7526" x2="22.002" y2="40.5826" gradientUnits="userSpaceOnUse">
<stop stop-color="#FC7300"/>
<stop offset="1" stop-color="#F8007A"/>
</linearGradient>
</defs>
</svg>
